<?xml version="1.0" standalone="no"?>
<!DOCTYPE svg PUBLIC "-//W3C//DTD SVG 20010904//EN"
 "http://www.w3.org/TR/2001/REC-SVG-20010904/DTD/svg10.dtd">
<svg version="1.0" xmlns="http://www.w3.org/2000/svg"
 width="120.000000pt" height="120.000000pt" viewBox="0 0 120.000000 120.000000"
 preserveAspectRatio="xMidYMid meet">
<metadata>
Created by potrace 1.11, written by Peter Selinger 2001-2013
</metadata>
<g transform="translate(0.000000,120.000000) scale(0.100000,-0.100000)"
fill="#000000" stroke="none">
<path d="M349 965 c-154 -153 -167 -159 -225 -101 -28 28 -36 32 -50 22 -24
-18 -9 -52 38 -87 46 -32 93 -38 136 -15 15 8 85 73 155 143 l128 129 -23 22
-23 21 -136 -134z"/>
<path d="M449 830 c-90 -78 -171 -149 -179 -156 -13 -12 -12 -17 7 -35 l21
-22 121 107 c66 59 123 111 126 116 3 6 14 14 23 19 10 6 -18 -60 -71 -166
-86 -171 -88 -176 -70 -194 17 -18 23 -16 204 70 l187 88 -129 -141 c-71 -78
-129 -146 -129 -152 0 -6 8 -18 19 -28 17 -16 25 -8 174 161 l156 178 -28 28
-28 28 -134 -61 c-74 -34 -153 -72 -176 -86 -23 -13 -43 -24 -45 -24 -3 0 29
66 70 147 110 217 107 205 73 237 l-29 27 -163 -141z"/>
<path d="M829 414 l-164 -164 23 -22 22 -23 66 66 65 65 37 -34 c90 -85 197
-81 252 10 38 63 20 130 -57 203 -26 26 -55 51 -64 55 -12 7 -53 -29 -180
-156z m225 46 c46 -51 48 -90 7 -131 -43 -42 -89 -40 -142 8 l-40 36 63 64
c34 35 65 63 69 63 4 0 23 -18 43 -40z"/>
</g>
</svg>
